<svg width="130" height="25" viewBox="0 0 130 25" fill="none" xmlns="http://www.w3.org/2000/svg">
<g clip-path="url(#clip0_364_229)">
<path d="M22.739 11.5362L13.4976 2.3112C12.0147 0.829662 10.003 -0.0031664 7.90499 -0.00408859C5.80698 -0.00501078 3.79455 0.826044 2.31038 2.30628C0.826211 3.78651 -0.00810861 5.79465 -0.00903244 7.88894C-0.00995626 9.98324 0.822587 11.9921 2.30545 13.4736L11.5468 22.6987C13.0297 24.1789 15.0409 25.0105 17.138 25.0105C19.235 25.0105 21.2462 24.1789 22.7291 22.6987C24.2119 21.2184 25.045 19.2108 25.045 17.1174C25.045 15.0241 24.2119 13.0165 22.7291 11.5362H22.739Z" fill="white" fill-opacity="0.88"/>
<path d="M31.9705 2.3112C31.238 1.57525 30.3669 0.991141 29.4073 0.592579C28.4477 0.194017 27.4187 -0.0111694 26.3794 -0.0111694C25.3401 -0.0111694 24.311 0.194017 23.3515 0.592579C22.3919 0.991141 21.5208 1.57525 20.7882 2.3112L11.5469 11.5362C10.8126 12.2692 10.2302 13.1393 9.83284 14.0969C9.43548 15.0545 9.23096 16.0809 9.23096 17.1175C9.23096 18.154 9.43548 19.1804 9.83284 20.138C10.2302 21.0956 10.8126 21.9657 11.5469 22.6987C12.2811 23.4316 13.1528 24.013 14.1121 24.4097C15.0714 24.8063 16.0996 25.0105 17.138 25.0105C18.1764 25.0105 19.2046 24.8063 20.1639 24.4097C21.1232 24.013 21.9949 23.4316 22.7291 22.6987L31.9705 13.4736C32.7078 12.7424 33.2929 11.8728 33.6921 10.915C34.0914 9.95709 34.297 8.9299 34.297 7.89243C34.297 6.85496 34.0914 5.8277 33.6921 4.86984C33.2929 3.91198 32.7078 3.04245 31.9705 2.3112V2.3112Z" fill="white"/>
<path d="M50.2167 17.8993V19.5319C50.2167 20.4578 49.8482 21.3458 49.1923 22.0006C48.5364 22.6553 47.6468 23.0232 46.7192 23.0232C45.7915 23.0232 44.9019 22.6553 44.246 22.0006C43.5901 21.3458 43.2216 20.4578 43.2216 19.5319V9.75611C43.2051 9.29317 43.2843 8.83176 43.4542 8.4007C43.6241 7.96965 43.8811 7.57814 44.2093 7.25059C44.5374 6.92304 44.9296 6.66651 45.3614 6.4969C45.7932 6.32728 46.2554 6.24821 46.7192 6.26471H54.6009C55.5285 6.26471 56.4182 6.63257 57.0741 7.28733C57.73 7.94208 58.0985 8.83014 58.0985 9.75611C58.0985 10.6821 57.73 11.5701 57.0741 12.2248C56.4182 12.8796 55.5285 13.2474 54.6009 13.2474V13.2474C54.7236 13.6222 54.7868 14.0137 54.7881 14.4079C54.8047 14.8709 54.7255 15.3322 54.5556 15.7633C54.3857 16.1943 54.1286 16.5858 53.8005 16.9134C53.4724 17.2409 53.0802 17.4975 52.6483 17.6671C52.2165 17.8368 51.7543 17.9158 51.2906 17.8993H50.2167Z" fill="white"/>
<path d="M70.6207 6.26471C71.5483 6.26471 72.4379 6.63257 73.0938 7.28733C73.7497 7.94208 74.1183 8.83014 74.1183 9.75611C74.1183 10.6821 73.7497 11.5701 73.0938 12.2248C72.4379 12.8796 71.5483 13.2474 70.6207 13.2474V13.2474C70.7387 13.6233 70.8018 14.0141 70.8079 14.4079C70.805 14.802 70.7419 15.1934 70.6207 15.5684V15.5684C71.5483 15.5684 72.4379 15.9363 73.0938 16.591C73.7497 17.2458 74.1183 18.1338 74.1183 19.0598C74.1183 19.9857 73.7497 20.8738 73.0938 21.5285C72.4379 22.1833 71.5483 22.5511 70.6207 22.5511H62.7389C62.2752 22.5676 61.813 22.4886 61.3812 22.319C60.9494 22.1494 60.5572 21.8928 60.229 21.5652C59.9009 21.2377 59.6439 20.8462 59.4739 20.4151C59.304 19.9841 59.2249 19.5227 59.2414 19.0598V9.75611C59.2249 9.29317 59.304 8.83176 59.4739 8.4007C59.6439 7.96965 59.9009 7.57814 60.229 7.25059C60.5572 6.92304 60.9494 6.66651 61.3812 6.4969C61.813 6.32728 62.2752 6.24821 62.7389 6.26471H70.6207Z" fill="white"/>
<path d="M86.9457 6.26474C87.8733 6.26474 88.763 6.6326 89.4189 7.28736C90.0748 7.94211 90.4433 8.83017 90.4433 9.75614C90.4433 10.6821 90.0748 11.5701 89.4189 12.2249C88.763 12.8796 87.8733 13.2475 86.9457 13.2475V13.2475C87.0684 13.6222 87.1316 14.0138 87.1329 14.408C87.1348 14.8024 87.0716 15.1945 86.9457 15.5685V15.5685C87.8733 15.5685 88.763 15.9363 89.4189 16.5911C90.0748 17.2458 90.4433 18.1338 90.4433 19.0598C90.4433 19.9858 90.0748 20.8738 89.4189 21.5286C88.763 22.1833 87.8733 22.5511 86.9457 22.5511H79.0147C78.5518 22.5663 78.0907 22.4862 77.66 22.316C77.2294 22.1458 76.8384 21.889 76.5113 21.5616C76.1842 21.2342 75.9281 20.8432 75.7588 20.4128C75.5895 19.9824 75.5106 19.5219 75.527 19.0598V9.75614C75.5106 9.29406 75.5895 8.8335 75.7588 8.40313C75.9281 7.97277 76.1842 7.58175 76.5113 7.25434C76.8384 6.92694 77.2294 6.67016 77.66 6.49993C78.0907 6.32969 78.5518 6.24962 79.0147 6.26474H86.9457Z" fill="white"/>
<path d="M99.3103 15.5684H101.872C102.8 15.5684 103.689 15.9363 104.345 16.5911C105.001 17.2458 105.369 18.1338 105.369 19.0598C105.369 19.9857 105.001 20.8738 104.345 21.5286C103.689 22.1833 102.8 22.5511 101.872 22.5511H95.8128C95.3491 22.5676 94.8869 22.4886 94.455 22.319C94.0232 22.1494 93.631 21.8928 93.3029 21.5652C92.9748 21.2377 92.7177 20.8462 92.5478 20.4151C92.3779 19.9841 92.2987 19.5227 92.3153 19.0598V9.29385C92.3153 8.36789 92.6838 7.47983 93.3397 6.82508C93.9956 6.17032 94.8852 5.80252 95.8128 5.80252C96.7404 5.80252 97.63 6.17032 98.2859 6.82508C98.9418 7.47983 99.3103 8.36789 99.3103 9.29385V15.5684Z" fill="white"/>
<path d="M106.079 9.29385C106.079 8.36789 106.447 7.47983 107.103 6.82508C107.759 6.17032 108.649 5.80252 109.576 5.80252C110.504 5.80252 111.394 6.17032 112.05 6.82508C112.705 7.47983 113.074 8.36789 113.074 9.29385V19.5319C113.074 20.4579 112.705 21.3459 112.05 22.0006C111.394 22.6554 110.504 23.0232 109.576 23.0232C108.649 23.0232 107.759 22.6554 107.103 22.0006C106.447 21.3459 106.079 20.4579 106.079 19.5319V9.29385Z" fill="white"/>
<path d="M130 17.9288C130 21.5283 126.296 23.0232 123.103 23.0232C121.946 23.0623 120.793 22.8685 119.712 22.4533C118.632 22.0382 117.646 21.4102 116.813 20.6068C115.981 19.8034 115.319 18.841 114.867 17.7769C114.414 16.7128 114.181 15.5687 114.181 14.4129C114.181 13.257 114.414 12.1129 114.867 11.0488C115.319 9.98469 115.981 9.0223 116.813 8.2189C117.646 7.4155 118.632 6.78755 119.712 6.37242C120.793 5.95729 121.946 5.76348 123.103 5.80253C126.296 5.80253 130 7.28757 130 10.8969C129.464 11.3135 129.03 11.8468 128.732 12.4561C128.433 13.0654 128.278 13.7346 128.278 14.4129C128.278 15.0911 128.433 15.7604 128.732 16.3697C129.03 16.979 129.464 17.5123 130 17.9288V17.9288Z" fill="white"/>
</g>
<defs>
<clipPath id="clip0_364_229">
<rect width="130" height="25" fill="white"/>
</clipPath>
</defs>
</svg>
